<svg xmlns="http://www.w3.org/2000/svg" width="259" height="209" viewBox="0 0 259 209">
  <g id="Grupo_1" data-name="Grupo 1" transform="translate(448 -279)" opacity="0.348">
    <circle id="Elipse_6" data-name="Elipse 6" cx="15" cy="15" r="15" transform="translate(-271 324)" fill="bisque"/>
    <circle id="Elipse_22" data-name="Elipse 22" cx="15" cy="15" r="15" transform="translate(-343 366)" fill="bisque"/>
    <circle id="Elipse_12" data-name="Elipse 12" cx="15" cy="15" r="15" transform="translate(-338 309)" fill="bisque"/>
    <ellipse id="Elipse_28" data-name="Elipse 28" cx="14.5" cy="15" rx="14.5" ry="15" transform="translate(-392 309)" fill="bisque"/>
    <circle id="Elipse_23" data-name="Elipse 23" cx="15" cy="15" r="15" transform="translate(-410 351)" fill="bisque"/>
    <ellipse id="Elipse_4" data-name="Elipse 4" cx="15" cy="14.5" rx="15" ry="14.5" transform="translate(-219 379)" fill="bisque"/>
    <circle id="Elipse_18" data-name="Elipse 18" cx="15" cy="15" r="15" transform="translate(-291 421)" fill="bisque"/>
    <circle id="Elipse_32" data-name="Elipse 32" cx="15" cy="15" r="15" transform="translate(-422 458)" fill="bisque"/>
    <circle id="Elipse_31" data-name="Elipse 31" cx="15" cy="15" r="15" transform="translate(-295 457)" fill="bisque"/>
    <circle id="Elipse_10" data-name="Elipse 10" cx="15" cy="15" r="15" transform="translate(-286 364)" fill="bisque"/>
    <circle id="Elipse_19" data-name="Elipse 19" cx="15" cy="15" r="15" transform="translate(-358 406)" fill="bisque"/>
    <circle id="Elipse_29" data-name="Elipse 29" cx="15" cy="15" r="15" transform="translate(-418 396)" fill="bisque"/>
    <circle id="Elipse_15" data-name="Elipse 15" cx="15" cy="15" r="15" transform="translate(-235 423)" fill="bisque"/>
    <circle id="Elipse_16" data-name="Elipse 16" cx="15" cy="15" r="15" transform="translate(-363 457)" fill="bisque"/>
    <ellipse id="Elipse_2" data-name="Elipse 2" cx="14.5" cy="15" rx="14.5" ry="15" transform="translate(-241 349)" fill="#566246"/>
    <circle id="Elipse_20" data-name="Elipse 20" cx="15" cy="15" r="15" transform="translate(-313 391)" fill="#566246"/>
    <ellipse id="Elipse_11" data-name="Elipse 11" cx="14.5" cy="15" rx="14.5" ry="15" transform="translate(-308 334)" fill="#566246"/>
    <ellipse id="Elipse_21" data-name="Elipse 21" cx="15" cy="14.5" rx="15" ry="14.5" transform="translate(-380 377)" fill="#566246"/>
    <circle id="Elipse_30" data-name="Elipse 30" cx="15" cy="15" r="15" transform="translate(-448 366)" fill="#566246"/>
    <ellipse id="Elipse_14" data-name="Elipse 14" cx="15" cy="14.5" rx="15" ry="14.5" transform="translate(-257 394)" fill="#566246"/>
    <circle id="Elipse_17" data-name="Elipse 17" cx="15" cy="15" r="15" transform="translate(-329 436)" fill="#566246"/>
    <ellipse id="Elipse_26" data-name="Elipse 26" cx="14.5" cy="15" rx="14.5" ry="15" transform="translate(-264 453)" fill="#566246"/>
    <circle id="Elipse_9" data-name="Elipse 9" cx="15" cy="15" r="15" transform="translate(-291 294)" fill="#566246"/>
    <ellipse id="Elipse_24" data-name="Elipse 24" cx="15" cy="14.5" rx="15" ry="14.5" transform="translate(-363 337)" fill="#566246"/>
    <circle id="Elipse_13" data-name="Elipse 13" cx="15" cy="15" r="15" transform="translate(-358 279)" fill="#566246"/>
    <ellipse id="Elipse_25" data-name="Elipse 25" cx="15" cy="14.5" rx="15" ry="14.5" transform="translate(-430 322)" fill="#566246"/>
    <ellipse id="Elipse_27" data-name="Elipse 27" cx="14.5" cy="15" rx="14.5" ry="15" transform="translate(-392 427)" fill="#566246"/>
    <ellipse id="Elipse_33" data-name="Elipse 33" cx="14.5" cy="15" rx="14.5" ry="15" transform="translate(-444 427)" fill="#566246"/>
  </g>
</svg>
